HIERARCHY
ROOT Hips
{
  OFFSET 0 89.5177 0.535
  CHANNELS 6 Xposition Yposition Zposition Zrotation Xrotation Yrotation
  JOINT Spine
  {
    OFFSET 12.0259 -0.162855 1.69034e-005
    CHANNELS 3 Zrotation Xrotation Yrotation
    JOINT Spine1
    {
      OFFSET 15.3169 -0.0121922 0
      CHANNELS 3 Zrotation Xrotation Yrotation
      JOINT Spine2
      {
        OFFSET 15.3176 -0.0121908 0
        CHANNELS 3 Zrotation Xrotation Yrotation
        JOINT Neck
        {
          OFFSET 19.9142 1.56338 0
          CHANNELS 3 Zrotation Xrotation Yrotation
          JOINT Head
          {
            OFFSET 6.92651 0 0
            CHANNELS 3 Zrotation Xrotation Yrotation
            End Site
            {
              OFFSET 20.7666 0 0
            }
          }
          JOINT LeftShoulder
          {
            OFFSET -6.20654 0.708824 7.28219
            CHANNELS 3 Zrotation Xrotation Yrotation
            JOINT LeftArm
            {
              OFFSET 14.108 0 -1.52588e-005
              CHANNELS 3 Zrotation Xrotation Yrotation
              JOINT LeftForeArm
              {
                OFFSET 28.5802 0 0
                CHANNELS 3 Zrotation Xrotation Yrotation
                JOINT LeftHand
                {
                  OFFSET 27.092 0 0
                  CHANNELS 3 Zrotation Xrotation Yrotation
                  End Site
                  {
                    OFFSET 9.55928 -0.186424 0.145352
                  }
                }
              }
            }
          }
          JOINT RightShoulder
          {
            OFFSET -6.20654 0.708866 -7.28218
            CHANNELS 3 Zrotation Xrotation Yrotation
            JOINT RightArm
            {
              OFFSET 14.108 0 1.52588e-005
              CHANNELS 3 Zrotation Xrotation Yrotation
              JOINT RightForeArm
              {
                OFFSET 28.5802 0 0
                CHANNELS 3 Zrotation Xrotation Yrotation
                JOINT RightHand
                {
                  OFFSET 27.092 0 0
                  CHANNELS 3 Zrotation Xrotation Yrotation
                  End Site
                  {
                    OFFSET 9.55929 -0.186417 -0.145354
                  }
                }
              }
            }
          }
        }
      }
    }
  }
  JOINT LeftUpLeg
  {
    OFFSET 0.005 -0.535 8.837
    CHANNELS 3 Zrotation Xrotation Yrotation
    JOINT LeftLeg
    {
      OFFSET 39.9035 0 0
      CHANNELS 3 Zrotation Xrotation Yrotation
      JOINT LeftFoot
      {
        OFFSET 39.6689 0 0
        CHANNELS 3 Zrotation Xrotation Yrotation
        JOINT LeftToe
        {
          OFFSET 10.1624 13.6296 0
          CHANNELS 3 Zrotation Xrotation Yrotation
          End Site
          {
            OFFSET 8.38147 0 0
          }
        }
      }
    }
  }
  JOINT RightUpLeg
  {
    OFFSET 0.005 -0.535 -8.837
    CHANNELS 3 Zrotation Xrotation Yrotation
    JOINT RightLeg
    {
      OFFSET 39.9035 0 0
      CHANNELS 3 Zrotation Xrotation Yrotation
      JOINT RightFoot
      {
        OFFSET 39.6689 0 0
        CHANNELS 3 Zrotation Xrotation Yrotation
        JOINT RightToe
        {
          OFFSET 10.1624 13.6296 0
          CHANNELS 3 Zrotation Xrotation Yrotation
          End Site
          {
            OFFSET 8.38147 0 0
          }
        }
      }
    }
  }
}
MOTION
Frames:	9
Frame Time:	0.0333333
339.997 87.9687 226.556 80.8871 -70.2752 -12.6579 0.785138 -0.0343364 0.116563 1.57034 -0.0665995 0.233747 1.57034 -0.0665996 0.233738 -8.30763e-012 -9.0191e-006 -5.27751e-005 -12.9439 -27.237 -4.72991 -177.919 -21.4524 -84.3248 -114.331 -61.0341 -45.7352 -95.521 1.27222e-014 -1.59028e-015 -77.4629 -13.5664 -69.3095 176.398 21.5802 99.7132 -137.186 57.598 51.2394 -86.8854 1.59028e-015 -5.56597e-015 -55.7591 37.98 59.4314 12.4296 -2.11202 -168.692 -12.9315 -4.77083e-015 -1.59028e-015 17.5905 6.05272 -6.26672 90 2.98177e-016 3.18055e-015 -12.3155 -12.6327 174.963 -19.6739 0 4.47266e-016 1.18133 -5.17005 5.24899 90 -9.93923e-017 -0 
341.127 87.882 224.774 78.9028 -71.7011 -15.2181 0.771234 -0.241275 0.346054 1.54393 -0.477393 0.695493 1.54393 -0.477393 0.695484 -8.30718e-012 -9.0191e-006 -5.27751e-005 -12.3481 -25.2941 -4.93936 -177.977 -22.4486 -84.715 -118.78 -59.89 -49.9145 -93.7426 6.36111e-015 -4.37326e-015 -77.2818 -13.6601 -68.9993 176.142 22.4542 100.013 -140.424 58.0576 54.8925 -87.3492 -3.18055e-015 -4.77083e-015 -55.8871 37.2206 59.2031 11.5779 -1.39962 -167.203 -17.5924 0 -7.95139e-016 18.486 5.50704 -7.16555 90 3.97569e-016 1.59028e-015 -10.9225 -12.1738 176.978 -19.9832 -7.95139e-016 -1.09332e-015 3.17817 -5.55444 4.8986 90 4.96962e-017 1.59028e-015 
342.321 87.9131 223.057 76.6851 -73.2388 -18.0197 0.753972 -0.369043 0.546917 1.51148 -0.730367 1.09884 1.51148 -0.730367 1.09883 -8.30738e-012 -9.0191e-006 -5.27751e-005 -11.6909 -23.4776 -5.12868 -178.062 -23.1807 -85.0863 -123.169 -59.2076 -53.7279 -92.5482 -6.36111e-015 -3.08116e-015 -76.378 -14.7423 -68.8634 175.895 23.189 100.328 -143.864 58.4929 58.4692 -87.6667 3.18055e-015 -4.77083e-015 -55.909 37.0078 59.0485 10.0327 -0.944538 -165.803 -23.3946 1.59028e-015 -1.59028e-015 18.6649 4.58901 -7.46056 90 3.97569e-016 -0 -9.33828 -10.4742 179.235 -19.7338 -1.59028e-015 3.97569e-016 4.42424 -5.05675 4.20509 90 4.96962e-017 4.77083e-015 
343.47 88.0729 221.501 74.5509 -75.1182 -20.4884 0.727075 -0.41143 0.660089 1.4589 -0.813951 1.32556 1.4589 -0.813951 1.32555 -8.30738e-012 -9.0191e-006 -5.27751e-005 -11.0948 -21.7156 -5.10842 -177.982 -24.0793 -85.0646 -127.121 -58.384 -56.7884 -91.9379 3.18055e-015 -1.98785e-015 -75.8305 -14.9166 -68.0506 175.745 23.7357 100.473 -146.637 58.6569 61.5768 -88.2442 -3.18055e-015 -6.36111e-015 -56.202 36.2358 58.7781 7.313 -0.674412 -164.751 -30.5027 4.77083e-015 -1.59028e-015 17.2251 3.61807 -7.95735 90 7.95139e-016 -1.59028e-015 -8.21947 -7.90944 -178.738 -19.2649 -2.38542e-015 -5.96354e-016 4.86311 -4.12898 3.04526 90 4.96962e-017 1.59028e-015 
344.505 88.2869 220.105 72.051 -76.8189 -23.0199 0.718449 -0.460003 0.692924 1.44248 -0.910774 1.39179 1.44248 -0.910774 1.39178 -8.30768e-012 -9.0191e-006 -5.27751e-005 -10.6713 -20.1059 -5.06879 -177.914 -25.0335 -85.0793 -130.334 -57.7085 -59.1178 -91.8015 1.59028e-014 7.95139e-016 -75.4968 -15.3636 -68.157 175.69 24.0949 100.461 -148.253 58.326 63.9758 -88.764 0 -1.11319e-014 -57.0475 35.0882 58.8109 3.81026 -0.68738 -163.938 -38.0284 1.59028e-015 -7.95139e-016 13.619 3.2558 -9.32739 90 -1.59028e-015 -1.59028e-015 -7.04921 -6.75185 -177.585 -18.4225 -3.18056e-015 -4.96962e-016 5.5357 -4.52131 3.7805 90 -4.96962e-016 3.18055e-015 
345.405 88.506 218.873 68.9512 -78.2707 -25.8618 0.729579 -0.480585 0.667421 1.46478 -0.952126 1.34114 1.46478 -0.952127 1.34113 -8.30748e-012 -9.0191e-006 -5.27751e-005 -10.3803 -18.5595 -5.0637 -177.879 -25.6176 -85.1032 -132.746 -56.9501 -60.9063 -91.6609 3.18055e-015 -3.18055e-015 -75.6979 -15.3642 -68.744 175.495 24.7594 100.655 -149.687 57.9208 65.9389 -88.9846 0 -0 -58.0203 33.7837 58.8169 0.177609 -0.887611 -163.691 -44.5858 1.59028e-015 -0 8.91191 3.59663 -9.9345 90 0 -0 -5.9001 -6.44437 -177.123 -17.5906 -1.59028e-015 -2.98177e-016 6.32434 -5.59537 5.44981 90 9.93923e-017 -0 
346.167 88.6844 217.748 64.7862 -79.7843 -29.7106 0.763503 -0.439644 0.644379 1.53197 -0.870161 1.29478 1.53197 -0.870161 1.29477 -8.30738e-012 -9.0191e-006 -5.27751e-005 -10.3825 -16.904 -5.08371 -177.793 -26.0894 -84.9927 -134.635 -55.9237 -62.3355 -91.4338 0 -3.18055e-015 -76.728 -14.7966 -70.3938 175.429 25.3322 100.583 -150.743 56.8719 67.3659 -88.9246 6.36111e-015 3.18055e-015 -59.2604 32.4564 59.1811 -2.01045 -0.911814 -164.124 -47.339 -7.95139e-015 -7.95139e-016 6.62756 5.33509 -9.2195 90 -1.59028e-015 4.77083e-015 -4.90504 -5.41708 -176.695 -16.8289 -1.59028e-015 -5.96354e-016 6.83027 -6.11294 6.2754 90 1.39149e-015 1.59028e-015 
346.761 88.863 216.686 58.3852 -81.3486 -35.682 0.79726 -0.368964 0.591114 1.59833 -0.729174 1.1875 1.59833 -0.729174 1.18749 -8.30758e-012 -9.0191e-006 -5.27751e-005 -10.2593 -15.3043 -4.9852 -177.793 -26.4931 -85.0628 -135.787 -55.1988 -63.2288 -91.5281 6.36111e-015 -1.59028e-015 -78.0376 -13.8045 -72.1881 175.261 25.7344 100.81 -152.001 56.416 68.4942 -89.0763 -3.18055e-015 7.95139e-015 -60.839 31.1026 60.1712 -2.58088 -0.696373 -165.387 -46.1542 0 7.95139e-016 9.02419 8.739 -7.72985 90 7.95139e-016 -0 -3.93195 -3.77795 -176.406 -16.0295 7.95139e-016 9.93923e-017 7.08922 -6.23203 6.52119 90 -3.97569e-016 -1.59028e-015 
347.146 89.0756 215.675 50.9621 -82.7688 -42.634 0.789438 -0.312903 0.517088 1.5817 -0.618167 1.03862 1.5817 -0.618167 1.03861 -8.30758e-012 -9.0191e-006 -5.27751e-005 -9.77636 -14.0665 -4.94231 -177.796 -26.7718 -85.1159 -136.583 -54.933 -63.9238 -92.1549 6.36111e-015 -3.18055e-015 -78.0898 -14.2112 -73.4266 175.143 25.971 100.982 -152.875 56.3027 69.0394 -89.351 6.36111e-015 -6.36111e-015 -62.9918 29.4276 61.8689 -3.17873 -1.24169 -166.739 -43.6138 -2.38542e-015 3.97569e-016 12.7908 10.7375 -10.7271 90 7.20594e-016 5.96354e-016 -3.02591 -2.48439 -176.447 -15.066 3.97569e-016 1.49089e-016 7.22875 -6.57511 7.13793 90 -5.46658e-016 -1.59028e-015 
